<svg width="63" height="63" viewBox="0 0 63 63" fill="none" xmlns="http://www.w3.org/2000/svg">
<path d="M33.6472 18.875H37.1765V22.4766H34.7156C34.2573 22.4766 33.8454 22.7058 33.5623 22.9717C33.2888 23.2285 33.0349 23.6168 33.0349 24.0371V27.5557H37.1296C37.0503 28.5044 36.9484 29.3935 36.8591 30.0791C36.8106 30.4519 36.7657 30.7639 36.7322 30.9922H33.0134V44.125H28.575V30.9922H25.9285V27.5742H28.575V23.46C28.575 23.1249 28.5484 21.9786 29.155 20.918C29.7339 19.906 30.9479 18.875 33.6472 18.875Z" fill="black" stroke="black"/>
<path d="M31.5 5.75C45.7217 5.75 57.25 17.2783 57.25 31.5C57.25 45.7217 45.7217 57.25 31.5 57.25C17.2783 57.25 5.75 45.7217 5.75 31.5C5.75 17.2783 17.2783 5.75 31.5 5.75ZM31.5 10C25.7978 10 20.3289 12.2648 16.2969 16.2969C12.2648 20.3289 10 25.7978 10 31.5C10 37.2022 12.2648 42.6711 16.2969 46.7031C20.3289 50.7352 25.7978 53 31.5 53C37.2022 53 42.6711 50.7352 46.7031 46.7031C50.7352 42.6711 53 37.2022 53 31.5C53 25.7978 50.7352 20.3289 46.7031 16.2969C42.6711 12.2648 37.2022 10 31.5 10Z" fill="black" stroke="black"/>
</svg>
