<svg width="50" height="50" viewBox="0 0 50 50" fill="none" xmlns="http://www.w3.org/2000/svg">
<path d="M33.3333 16.6667C36.6485 16.6667 39.8279 17.9837 42.1721 20.3279C44.5163 22.6721 45.8333 25.8515 45.8333 29.1667V43.7501H37.4999V29.1667C37.4999 28.0617 37.0609 27.0019 36.2795 26.2205C35.4981 25.4391 34.4383 25.0001 33.3333 25.0001C32.2282 25.0001 31.1684 25.4391 30.387 26.2205C29.6056 27.0019 29.1666 28.0617 29.1666 29.1667V43.7501H20.8333V29.1667C20.8333 25.8515 22.1502 22.6721 24.4944 20.3279C26.8386 17.9837 30.018 16.6667 33.3333 16.6667V16.6667Z" stroke="#21272A" stroke-width="3" stroke-linecap="round" stroke-linejoin="round"/>
<path d="M12.5001 18.75H4.16675V43.75H12.5001V18.75Z" stroke="#21272A" stroke-width="3" stroke-linecap="round" stroke-linejoin="round"/>
<path d="M8.33341 12.5001C10.6346 12.5001 12.5001 10.6346 12.5001 8.33341C12.5001 6.03223 10.6346 4.16675 8.33341 4.16675C6.03223 4.16675 4.16675 6.03223 4.16675 8.33341C4.16675 10.6346 6.03223 12.5001 8.33341 12.5001Z" stroke="#21272A" stroke-width="3" stroke-linecap="round" stroke-linejoin="round"/>
</svg>
