<svg width="63" height="63" viewBox="0 0 63 63" fill="none" xmlns="http://www.w3.org/2000/svg">
<path d="M36.75 39.375L40.6875 43.3125" stroke="#21272A" stroke-width="2" stroke-linecap="round" stroke-linejoin="round"/>
<path d="M22.3125 32.8125C22.3125 37.1619 25.8383 40.6875 30.1875 40.6875C32.366 40.6875 34.3376 39.8029 35.7633 38.3736C37.1842 36.949 38.0625 34.9834 38.0625 32.8125C38.0625 28.4631 34.5369 24.9375 30.1875 24.9375C25.8383 24.9375 22.3125 28.4631 22.3125 32.8125Z" stroke="#21272A" stroke-width="2" stroke-linecap="round" stroke-linejoin="round"/>
<path d="M10.5 56.175V6.825C10.5 5.95515 11.2052 5.25 12.075 5.25H42.6602C43.0778 5.25 43.4784 5.41593 43.7737 5.71132L52.0388 13.9762C52.3341 14.2716 52.5 14.6722 52.5 15.0899V56.175C52.5 57.0449 51.7949 57.75 50.925 57.75H12.075C11.2052 57.75 10.5 57.0449 10.5 56.175Z" stroke="#21272A" stroke-width="2" stroke-linecap="round" stroke-linejoin="round"/>
<path d="M42 14.175V6.17807C42 5.66551 42.4155 5.25 42.9282 5.25C43.1742 5.25 43.4101 5.34778 43.5844 5.52182L52.2281 14.1657C52.4024 14.3397 52.5 14.5758 52.5 14.8219C52.5 15.3345 52.0845 15.75 51.5718 15.75H43.575C42.7051 15.75 42 15.0448 42 14.175Z" fill="#21272A" stroke="#21272A" stroke-width="1.5" stroke-linecap="round" stroke-linejoin="round"/>
</svg>
