<svg width="32" height="32" viewBox="0 0 32 32" fill="none" xmlns="http://www.w3.org/2000/svg">
<g clip-path="url(#clip0_395_17)">
<path d="M2 0.000320922L0 2.00032L4.4 8.16232C4.58523 8.42181 4.82982 8.63325 5.11336 8.77903C5.3969 8.9248 5.71118 9.00067 6.03 9.00032H6.17C6.43296 9.00011 6.69338 9.05177 6.93635 9.15232C7.17933 9.25287 7.40009 9.40035 7.586 9.58632L12.936 14.9363L7.702 20.2443C6.80679 19.9808 5.86248 19.9295 4.944 20.0945C4.02551 20.2595 3.15811 20.6363 2.4106 21.1949C1.66309 21.7536 1.05604 22.4787 0.637607 23.3129C0.219172 24.147 0.000864402 25.0671 0 26.0003C0.00119893 26.8602 0.187207 27.7098 0.545423 28.4915C0.903638 29.2732 1.42569 29.9688 2.07621 30.5311C2.72673 31.0934 3.49052 31.5094 4.31583 31.7507C5.14114 31.9921 6.00869 32.0532 6.85969 31.93C7.7107 31.8068 8.52528 31.5022 9.24825 31.0366C9.97122 30.5711 10.5857 29.9556 11.05 29.2319C11.5143 28.5082 11.8177 27.6931 11.9395 26.8419C12.0613 25.9907 11.9987 25.1232 11.756 24.2983L17.064 19.0643L19 21.0003L18.39 22.8283C18.2728 23.1807 18.256 23.5587 18.3415 23.92C18.4269 24.2814 18.6113 24.6118 18.874 24.8743L25.414 31.4143C25.5993 31.6007 25.8196 31.7486 26.0623 31.8495C26.305 31.9504 26.5652 32.0024 26.828 32.0024C27.0908 32.0024 27.351 31.9504 27.5937 31.8495C27.8364 31.7486 28.0567 31.6007 28.242 31.4143L31.414 28.2423C31.6004 28.057 31.7483 27.8367 31.8492 27.594C31.9501 27.3514 32.0021 27.0911 32.0021 26.8283C32.0021 26.5655 31.9501 26.3053 31.8492 26.0626C31.7483 25.8199 31.6004 25.5996 31.414 25.4143L24.874 18.8743C24.6115 18.6117 24.2811 18.4273 23.9197 18.3418C23.5584 18.2563 23.1803 18.2731 22.828 18.3903L21 19.0003L19.08 17.0803L24.44 11.7943C25.3292 12.0317 26.261 12.0617 27.1636 11.8819C28.0662 11.7022 28.9154 11.3176 29.6459 10.7578C30.3763 10.198 30.9685 9.4779 31.3766 8.65305C31.7848 7.8282 31.9981 6.92063 32 6.00032C32 5.46232 31.93 4.94032 31.796 4.44632L27.516 8.72832L24 8.00032L23.272 4.48632L27.554 0.204321C26.5354 -0.0695565 25.4626 -0.0700678 24.4437 0.202839C23.4248 0.475745 22.4959 1.01242 21.7506 1.75878C21.0052 2.50513 20.4698 3.43479 20.1983 4.45403C19.9268 5.47327 19.9287 6.54608 20.204 7.56432L14.924 12.9203L9.586 7.58632C9.2109 7.21134 9.00011 6.70271 9 6.17232V6.03032C9.00003 5.71184 8.924 5.39796 8.77825 5.11479C8.63249 4.83162 8.42121 4.58736 8.162 4.40232L2 0.000320922ZM21.292 21.2923C21.3849 21.1992 21.4952 21.1253 21.6167 21.0749C21.7382 21.0245 21.8685 20.9985 22 20.9985C22.1315 20.9985 22.2618 21.0245 22.3833 21.0749C22.5048 21.1253 22.6151 21.1992 22.708 21.2923L28.536 27.1223C28.7182 27.3109 28.819 27.5635 28.8167 27.8257C28.8144 28.0879 28.7092 28.3387 28.5238 28.5241C28.3384 28.7095 28.0876 28.8147 27.8254 28.817C27.5632 28.8193 27.3106 28.7185 27.122 28.5363L21.292 22.7083C21.1989 22.6154 21.125 22.5051 21.0746 22.3836C21.0242 22.2621 20.9982 22.1319 20.9982 22.0003C20.9982 21.8688 21.0242 21.7385 21.0746 21.6171C21.125 21.4956 21.1989 21.3852 21.292 21.2923ZM6 22.0003L6.942 22.4843L8 22.5363L8.574 23.4263L9.464 24.0003L9.516 25.0583L10 26.0003L9.516 26.9423L9.464 28.0003L8.574 28.5743L8 29.4643L6.942 29.5163L6 30.0003L5.058 29.5163L4 29.4643L3.426 28.5743L2.536 28.0003L2.484 26.9423L2 26.0003L2.484 25.0583L2.536 24.0003L3.426 23.4263L4 22.5363L5.058 22.4843L6 22.0003Z" fill="black"/>
</g>
<defs>
<clipPath id="clip0_395_17">
<rect width="32" height="32" fill="white"/>
</clipPath>
</defs>
</svg>
