<svg width="63" height="63" viewBox="0 0 63 63" fill="none" xmlns="http://www.w3.org/2000/svg">
<g clip-path="url(#clip0_341_16)">
<path d="M7.875 55.1249L12.2063 45.1499C8.89261 40.446 7.4095 34.6946 8.03524 28.9749C8.66098 23.2552 11.3526 17.9605 15.6049 14.0844C19.8572 10.2083 25.3778 8.0172 31.1309 7.9224C36.8839 7.8276 42.4738 9.83557 46.8515 13.5695C51.2292 17.3034 54.0937 22.5066 54.9076 28.2025C55.7214 33.8985 54.4286 39.6957 51.2718 44.5062C48.1149 49.3166 43.311 52.8097 37.7617 54.3298C32.2123 55.8499 26.2989 55.2926 21.1313 52.7624L7.875 55.1249" stroke="#21272A" stroke-width="4" stroke-linecap="round" stroke-linejoin="round"/>
<path d="M23.625 26.25C23.625 26.5981 23.7633 26.9319 24.0094 27.1781C24.2556 27.4242 24.5894 27.5625 24.9375 27.5625C25.2856 27.5625 25.6194 27.4242 25.8656 27.1781C26.1117 26.9319 26.25 26.5981 26.25 26.25V23.625C26.25 23.2769 26.1117 22.9431 25.8656 22.6969C25.6194 22.4508 25.2856 22.3125 24.9375 22.3125C24.5894 22.3125 24.2556 22.4508 24.0094 22.6969C23.7633 22.9431 23.625 23.2769 23.625 23.625V26.25ZM23.625 26.25C23.625 29.731 25.0078 33.0694 27.4692 35.5308C29.9306 37.9922 33.269 39.375 36.75 39.375H39.375C39.7231 39.375 40.0569 39.2367 40.3031 38.9906C40.5492 38.7444 40.6875 38.4106 40.6875 38.0625C40.6875 37.7144 40.5492 37.3806 40.3031 37.1344C40.0569 36.8883 39.7231 36.75 39.375 36.75H36.75C36.4019 36.75 36.0681 36.8883 35.8219 37.1344C35.5758 37.3806 35.4375 37.7144 35.4375 38.0625C35.4375 38.4106 35.5758 38.7444 35.8219 38.9906C36.0681 39.2367 36.4019 39.375 36.75 39.375" stroke="#21272A" stroke-width="4" stroke-linecap="round" stroke-linejoin="round"/>
</g>
<defs>
<clipPath id="clip0_341_16">
<rect width="63" height="63" fill="white"/>
</clipPath>
</defs>
</svg>
